<svg xmlns="http://www.w3.org/2000/svg" xmlns:xlink="http://www.w3.org/1999/xlink" id="Layer_1" width="96" height="96" x="0" y="0" enable-background="new 0 0 96 96" version="1.1" viewBox="0 0 96 96" xml:space="preserve"><switch><g><path d="M32,90.365c-3.635,0-7.179-0.69-10.534-2.051c-3.476-1.41-6.593-3.479-9.265-6.15s-4.741-5.789-6.15-9.265 C4.69,69.544,4,66,4,62.365s0.69-7.18,2.051-10.535c1.409-3.476,3.479-6.593,6.15-9.265l0.007-0.007L49.103,5.84 c1.902-1.901,4.122-3.375,6.598-4.379C58.09,0.492,60.613,0,63.201,0c2.587,0,5.11,0.492,7.5,1.461 c2.476,1.004,4.695,2.478,6.598,4.379c1.902,1.902,3.375,4.122,4.38,6.598c0.969,2.39,1.46,4.913,1.46,7.501 s-0.491,5.111-1.46,7.501c-1.005,2.476-2.478,4.695-4.38,6.598L40.485,70.85c-1.145,1.145-2.48,2.031-3.972,2.637 c-1.438,0.583-2.957,0.879-4.514,0.879s-3.075-0.296-4.514-0.879c-1.491-0.605-2.827-1.492-3.972-2.637 c-1.145-1.144-2.031-2.48-2.636-3.971C20.296,65.44,20,63.922,20,62.365s0.296-3.076,0.879-4.514 c0.604-1.491,1.491-2.828,2.636-3.973l33.941-33.94c1.562-1.562,4.095-1.562,5.657,0c1.562,1.562,1.562,4.095,0,5.657 l-33.941,33.94C28.416,60.292,28,61.297,28,62.365s0.416,2.072,1.172,2.828c0.755,0.756,1.76,1.172,2.828,1.172 s2.073-0.416,2.828-1.172L71.642,28.38c2.255-2.255,3.497-5.253,3.497-8.441s-1.242-6.187-3.497-8.441 C69.388,9.242,66.39,8,63.201,8c-3.189,0-6.188,1.242-8.441,3.497l-0.007,0.007L17.855,48.225 c-1.909,1.91-3.387,4.135-4.392,6.612C12.493,57.232,12,59.766,12,62.365c0,2.599,0.493,5.132,1.464,7.527 c1.006,2.479,2.483,4.704,4.395,6.614c1.91,1.91,4.136,3.389,6.613,4.394c2.396,0.972,4.929,1.465,7.528,1.465 s5.133-0.493,7.528-1.465c2.479-1.005,4.703-2.483,6.614-4.394l36.77-36.77c1.562-1.562,4.095-1.562,5.656,0 c1.562,1.562,1.562,4.095,0,5.657l-36.77,36.77c-2.671,2.671-5.788,4.74-9.265,6.15C39.18,89.675,35.635,90.365,32,90.365z"/></g></switch></svg>